<mxfile host="Electron" modified="2024-03-12T20:13:08.599Z" agent="Mozilla/5.0 (X11; Linux x86_64) AppleWebKit/537.36 (KHTML, like Gecko) draw.io/24.0.4 Chrome/120.0.6099.109 Electron/28.1.0 Safari/537.36" etag="X8kiMm1o3ZYPrICtMYAl" version="24.0.4" type="device">
  <diagram id="C5RBs43oDa-KdzZeNtuy" name="Page-1">
    <mxGraphModel dx="952" dy="618" grid="1" gridSize="10" guides="1" tooltips="1" connect="1" arrows="1" fold="1" page="1" pageScale="1" pageWidth="827" pageHeight="1169" math="0" shadow="0">
      <root>
        <mxCell id="WIyWlLk6GJQsqaUBKTNV-0" />
        <mxCell id="WIyWlLk6GJQsqaUBKTNV-1" parent="WIyWlLk6GJQsqaUBKTNV-0" />
        <mxCell id="Uxs-Q_c9s4lqzoumodwN-1" style="edgeStyle=orthogonalEdgeStyle;rounded=0;orthogonalLoop=1;jettySize=auto;html=1;" edge="1" parent="WIyWlLk6GJQsqaUBKTNV-1" source="zigKBNsuDVSj62tiW1vw-0">
          <mxGeometry relative="1" as="geometry">
            <mxPoint x="420" y="240" as="targetPoint" />
          </mxGeometry>
        </mxCell>
        <mxCell id="zigKBNsuDVSj62tiW1vw-0" value="Menu + Frame" style="rounded=1;whiteSpace=wrap;html=1;" parent="WIyWlLk6GJQsqaUBKTNV-1" vertex="1">
          <mxGeometry x="330" y="60" width="190" height="110" as="geometry" />
        </mxCell>
        <mxCell id="Uxs-Q_c9s4lqzoumodwN-5" style="edgeStyle=orthogonalEdgeStyle;rounded=0;orthogonalLoop=1;jettySize=auto;html=1;" edge="1" parent="WIyWlLk6GJQsqaUBKTNV-1" source="zigKBNsuDVSj62tiW1vw-3" target="Uxs-Q_c9s4lqzoumodwN-4">
          <mxGeometry relative="1" as="geometry" />
        </mxCell>
        <mxCell id="Uxs-Q_c9s4lqzoumodwN-15" style="edgeStyle=orthogonalEdgeStyle;rounded=0;orthogonalLoop=1;jettySize=auto;html=1;" edge="1" parent="WIyWlLk6GJQsqaUBKTNV-1" source="zigKBNsuDVSj62tiW1vw-3">
          <mxGeometry relative="1" as="geometry">
            <mxPoint x="130" y="660" as="targetPoint" />
          </mxGeometry>
        </mxCell>
        <mxCell id="zigKBNsuDVSj62tiW1vw-3" value="openFile_chPerm" style="whiteSpace=wrap;html=1;" parent="WIyWlLk6GJQsqaUBKTNV-1" vertex="1">
          <mxGeometry x="150" y="330" width="120" height="60" as="geometry" />
        </mxCell>
        <mxCell id="Uxs-Q_c9s4lqzoumodwN-6" style="edgeStyle=orthogonalEdgeStyle;rounded=0;orthogonalLoop=1;jettySize=auto;html=1;entryX=0.75;entryY=0;entryDx=0;entryDy=0;" edge="1" parent="WIyWlLk6GJQsqaUBKTNV-1" source="zigKBNsuDVSj62tiW1vw-4" target="Uxs-Q_c9s4lqzoumodwN-4">
          <mxGeometry relative="1" as="geometry" />
        </mxCell>
        <mxCell id="Uxs-Q_c9s4lqzoumodwN-12" style="edgeStyle=orthogonalEdgeStyle;rounded=0;orthogonalLoop=1;jettySize=auto;html=1;" edge="1" parent="WIyWlLk6GJQsqaUBKTNV-1" source="zigKBNsuDVSj62tiW1vw-4">
          <mxGeometry relative="1" as="geometry">
            <mxPoint x="730" y="660" as="targetPoint" />
          </mxGeometry>
        </mxCell>
        <mxCell id="zigKBNsuDVSj62tiW1vw-4" value="createFile_wPerm" style="whiteSpace=wrap;html=1;" parent="WIyWlLk6GJQsqaUBKTNV-1" vertex="1">
          <mxGeometry x="570" y="330" width="120" height="60" as="geometry" />
        </mxCell>
        <mxCell id="Uxs-Q_c9s4lqzoumodwN-2" style="edgeStyle=orthogonalEdgeStyle;rounded=0;orthogonalLoop=1;jettySize=auto;html=1;" edge="1" parent="WIyWlLk6GJQsqaUBKTNV-1" source="Uxs-Q_c9s4lqzoumodwN-0" target="zigKBNsuDVSj62tiW1vw-4">
          <mxGeometry relative="1" as="geometry" />
        </mxCell>
        <mxCell id="Uxs-Q_c9s4lqzoumodwN-3" style="edgeStyle=orthogonalEdgeStyle;rounded=0;orthogonalLoop=1;jettySize=auto;html=1;entryX=0.5;entryY=0;entryDx=0;entryDy=0;" edge="1" parent="WIyWlLk6GJQsqaUBKTNV-1" source="Uxs-Q_c9s4lqzoumodwN-0" target="zigKBNsuDVSj62tiW1vw-3">
          <mxGeometry relative="1" as="geometry" />
        </mxCell>
        <mxCell id="Uxs-Q_c9s4lqzoumodwN-0" value="What do you&amp;nbsp; to do?" style="text;html=1;align=center;verticalAlign=middle;resizable=0;points=[];autosize=1;strokeColor=none;fillColor=none;" vertex="1" parent="WIyWlLk6GJQsqaUBKTNV-1">
          <mxGeometry x="349" y="250" width="130" height="30" as="geometry" />
        </mxCell>
        <mxCell id="Uxs-Q_c9s4lqzoumodwN-7" style="edgeStyle=orthogonalEdgeStyle;rounded=0;orthogonalLoop=1;jettySize=auto;html=1;" edge="1" parent="WIyWlLk6GJQsqaUBKTNV-1" source="Uxs-Q_c9s4lqzoumodwN-4">
          <mxGeometry relative="1" as="geometry">
            <mxPoint x="425" y="590" as="targetPoint" />
          </mxGeometry>
        </mxCell>
        <mxCell id="Uxs-Q_c9s4lqzoumodwN-4" value="2nd Menu File Permissons" style="whiteSpace=wrap;html=1;" vertex="1" parent="WIyWlLk6GJQsqaUBKTNV-1">
          <mxGeometry x="365" y="440" width="120" height="60" as="geometry" />
        </mxCell>
        <mxCell id="Uxs-Q_c9s4lqzoumodwN-8" value="Filename" style="text;html=1;align=center;verticalAlign=middle;resizable=0;points=[];autosize=1;strokeColor=none;fillColor=none;" vertex="1" parent="WIyWlLk6GJQsqaUBKTNV-1">
          <mxGeometry x="390" y="598" width="70" height="30" as="geometry" />
        </mxCell>
        <mxCell id="Uxs-Q_c9s4lqzoumodwN-10" style="edgeStyle=orthogonalEdgeStyle;rounded=0;orthogonalLoop=1;jettySize=auto;html=1;entryX=0.175;entryY=1.017;entryDx=0;entryDy=0;entryPerimeter=0;" edge="1" parent="WIyWlLk6GJQsqaUBKTNV-1" source="Uxs-Q_c9s4lqzoumodwN-8" target="zigKBNsuDVSj62tiW1vw-3">
          <mxGeometry relative="1" as="geometry" />
        </mxCell>
        <mxCell id="Uxs-Q_c9s4lqzoumodwN-11" style="edgeStyle=orthogonalEdgeStyle;rounded=0;orthogonalLoop=1;jettySize=auto;html=1;entryX=0.65;entryY=1.033;entryDx=0;entryDy=0;entryPerimeter=0;" edge="1" parent="WIyWlLk6GJQsqaUBKTNV-1" source="Uxs-Q_c9s4lqzoumodwN-8" target="zigKBNsuDVSj62tiW1vw-4">
          <mxGeometry relative="1" as="geometry" />
        </mxCell>
        <mxCell id="Uxs-Q_c9s4lqzoumodwN-14" value="Close File" style="text;html=1;align=center;verticalAlign=middle;resizable=0;points=[];autosize=1;strokeColor=none;fillColor=none;" vertex="1" parent="WIyWlLk6GJQsqaUBKTNV-1">
          <mxGeometry x="690" y="668" width="80" height="30" as="geometry" />
        </mxCell>
        <mxCell id="Uxs-Q_c9s4lqzoumodwN-16" value="Close File" style="text;html=1;align=center;verticalAlign=middle;resizable=0;points=[];autosize=1;strokeColor=none;fillColor=none;" vertex="1" parent="WIyWlLk6GJQsqaUBKTNV-1">
          <mxGeometry x="90" y="658" width="80" height="30" as="geometry" />
        </mxCell>
      </root>
    </mxGraphModel>
  </diagram>
</mxfile>
